<?xml version="1.0" encoding="UTF-8" standalone="no"?>
<!DOCTYPE svg PUBLIC "-//W3C//DTD SVG 1.1//EN"
 "http://www.w3.org/Graphics/SVG/1.1/DTD/svg11.dtd">
<!-- Generated by graphviz version 2.46.1 (0)
 -->
<!-- Pages: 1 -->
<svg width="2512pt" height="1349pt"
 viewBox="0.00 0.00 2512.00 1349.00" xmlns="http://www.w3.org/2000/svg" xmlns:xlink="http://www.w3.org/1999/xlink">
<g id="graph0" class="graph" transform="scale(1 1) rotate(0) translate(4 1345)">
<polygon fill="white" stroke="transparent" points="-4,4 -4,-1345 2508,-1345 2508,4 -4,4"/>
<!-- state_00 -->
<g id="node1" class="node">
<title>state_00</title>
<ellipse fill="none" stroke="black" cx="2045" cy="-1323" rx="75.29" ry="18"/>
<text text-anchor="middle" x="2045" y="-1319.3" font-family="Times,serif" font-size="14.00">00: ROT_CCW</text>
</g>
<!-- state_02 -->
<g id="node3" class="node">
<title>state_02</title>
<ellipse fill="none" stroke="black" cx="1751" cy="-1236" rx="75.29" ry="18"/>
<text text-anchor="middle" x="1751" y="-1232.3" font-family="Times,serif" font-size="14.00">02: ADVANCE</text>
</g>
<!-- state_00&#45;&gt;state_02 -->
<g id="edge3" class="edge">
<title>state_00&#45;&gt;state_02</title>
<path fill="none" stroke="black" d="M1999.06,-1308.72C1947.11,-1293.7 1862.52,-1269.24 1806.81,-1253.13"/>
<polygon fill="black" stroke="black" points="1807.68,-1249.74 1797.1,-1250.33 1805.73,-1256.47 1807.68,-1249.74"/>
<text text-anchor="middle" x="1929" y="-1275.8" font-family="Times,serif" font-size="14.00">010</text>
</g>
<!-- state_03 -->
<g id="node4" class="node">
<title>state_03</title>
<ellipse fill="none" stroke="black" cx="1399" cy="-279" rx="75.29" ry="18"/>
<text text-anchor="middle" x="1399" y="-275.3" font-family="Times,serif" font-size="14.00">03: ROT_CCW</text>
</g>
<!-- state_00&#45;&gt;state_03 -->
<g id="edge1" class="edge">
<title>state_00&#45;&gt;state_03</title>
<path fill="none" stroke="black" d="M2098.31,-1310.09C2134.94,-1298.39 2177,-1276.39 2177,-1237 2177,-1237 2177,-1237 2177,-843.5 2177,-598.81 2154.62,-459.88 1937,-348 1859.66,-308.24 1613.75,-290.45 1482.86,-283.63"/>
<polygon fill="black" stroke="black" points="1482.65,-280.11 1472.48,-283.1 1482.29,-287.11 1482.65,-280.11"/>
<text text-anchor="middle" x="2190" y="-797.3" font-family="Times,serif" font-size="14.00">000</text>
</g>
<!-- state_00&#45;&gt;state_03 -->
<g id="edge4" class="edge">
<title>state_00&#45;&gt;state_03</title>
<path fill="none" stroke="black" d="M2111.89,-1314.53C2192.42,-1303.64 2317,-1279.86 2317,-1237 2317,-1237 2317,-1237 2317,-843.5 2317,-647.13 2421.82,-577.64 2334,-402 2305.18,-344.36 2278.69,-336.68 2218,-315 2150.4,-290.85 1680.62,-283.03 1484.6,-280.8"/>
<polygon fill="black" stroke="black" points="1484.38,-277.29 1474.34,-280.68 1484.3,-284.29 1484.38,-277.29"/>
<text text-anchor="middle" x="2334" y="-797.3" font-family="Times,serif" font-size="14.00">011</text>
</g>
<!-- state_06 -->
<g id="node7" class="node">
<title>state_06</title>
<ellipse fill="none" stroke="black" cx="1455" cy="-1149" rx="75.29" ry="18"/>
<text text-anchor="middle" x="1455" y="-1145.3" font-family="Times,serif" font-size="14.00">06: ADVANCE</text>
</g>
<!-- state_00&#45;&gt;state_06 -->
<g id="edge5" class="edge">
<title>state_00&#45;&gt;state_06</title>
<path fill="none" stroke="black" d="M1970.27,-1320.47C1819.38,-1316.97 1488.56,-1307.1 1441,-1287 1409.14,-1273.53 1394.22,-1250.87 1405,-1218 1410.27,-1201.94 1420.95,-1186.54 1431.08,-1174.47"/>
<polygon fill="black" stroke="black" points="1433.96,-1176.5 1437.94,-1166.68 1428.71,-1171.87 1433.96,-1176.5"/>
<text text-anchor="middle" x="1419" y="-1232.3" font-family="Times,serif" font-size="14.00">100</text>
</g>
<!-- state_07 -->
<g id="node8" class="node">
<title>state_07</title>
<ellipse fill="none" stroke="black" cx="1142" cy="-192" rx="75.29" ry="18"/>
<text text-anchor="middle" x="1142" y="-188.3" font-family="Times,serif" font-size="14.00">07: ROT_CCW</text>
</g>
<!-- state_00&#45;&gt;state_07 -->
<g id="edge8" class="edge">
<title>state_00&#45;&gt;state_07</title>
<path fill="none" stroke="black" d="M2120.12,-1320.83C2233.94,-1316.99 2437,-1301.15 2437,-1237 2437,-1237 2437,-1237 2437,-843.5 2437,-808.21 2428.03,-800.16 2425,-765 2423.09,-742.86 2424,-737.23 2424,-715 2424,-715 2424,-715 2424,-408.5 2424,-388.25 2334.8,-270.65 2317,-261 2217.92,-207.29 1416.36,-218.72 1304,-210 1276,-207.83 1245.34,-204.78 1218.31,-201.87"/>
<polygon fill="black" stroke="black" points="1218.45,-198.36 1208.13,-200.76 1217.7,-205.32 1218.45,-198.36"/>
<text text-anchor="middle" x="2439" y="-753.8" font-family="Times,serif" font-size="14.00">111</text>
</g>
<!-- state_08 -->
<g id="node9" class="node">
<title>state_08</title>
<ellipse fill="none" stroke="black" cx="458" cy="-18" rx="68.79" ry="18"/>
<text text-anchor="middle" x="458" y="-14.3" font-family="Times,serif" font-size="14.00">08: ROT_CW</text>
</g>
<!-- state_00&#45;&gt;state_08 -->
<g id="edge2" class="edge">
<title>state_00&#45;&gt;state_08</title>
<path fill="none" stroke="black" d="M1969.7,-1321.95C1751.65,-1321.45 1101.01,-1317.31 562,-1287 436.82,-1279.96 0,-1362.38 0,-1237 0,-1237 0,-1237 0,-104 0,-68.95 28.54,-67.24 61,-54 116.77,-31.25 280.28,-23.26 379.21,-20.47"/>
<polygon fill="black" stroke="black" points="379.56,-23.96 389.46,-20.19 379.37,-16.97 379.56,-23.96"/>
<text text-anchor="middle" x="14" y="-666.8" font-family="Times,serif" font-size="14.00">001</text>
</g>
<!-- state_09 -->
<g id="node10" class="node">
<title>state_09</title>
<ellipse fill="none" stroke="black" cx="1433" cy="-366" rx="75.29" ry="18"/>
<text text-anchor="middle" x="1433" y="-362.3" font-family="Times,serif" font-size="14.00">09: ADVANCE</text>
</g>
<!-- state_00&#45;&gt;state_09 -->
<g id="edge6" class="edge">
<title>state_00&#45;&gt;state_09</title>
<path fill="none" stroke="black" d="M2080.54,-1307.05C2107.16,-1293.2 2139,-1269.78 2139,-1237 2139,-1237 2139,-1237 2139,-930.5 2139,-816.32 2069.78,-527.62 2003,-435 1988.49,-414.88 1981.3,-410.5 1958,-402 1879.66,-373.44 1646.08,-367.81 1518.5,-366.94"/>
<polygon fill="black" stroke="black" points="1518.39,-363.44 1508.37,-366.88 1518.35,-370.44 1518.39,-363.44"/>
<text text-anchor="middle" x="2146" y="-840.8" font-family="Times,serif" font-size="14.00">101</text>
</g>
<!-- state_15 -->
<g id="node16" class="node">
<title>state_15</title>
<ellipse fill="none" stroke="black" cx="1703" cy="-453" rx="75.29" ry="18"/>
<text text-anchor="middle" x="1703" y="-449.3" font-family="Times,serif" font-size="14.00">15: ROT_CCW</text>
</g>
<!-- state_00&#45;&gt;state_15 -->
<g id="edge7" class="edge">
<title>state_00&#45;&gt;state_15</title>
<path fill="none" stroke="black" d="M2045,-1304.74C2045,-1287.57 2045,-1260.46 2045,-1237 2045,-1237 2045,-1237 2045,-930.5 2045,-810.76 2084.73,-758.87 2013,-663 1968.27,-603.21 1761.99,-563.59 1717,-504 1712.01,-497.4 1708.8,-489.1 1706.74,-481.18"/>
<polygon fill="black" stroke="black" points="1710.11,-480.21 1704.63,-471.14 1703.26,-481.65 1710.11,-480.21"/>
<text text-anchor="middle" x="2062" y="-884.3" font-family="Times,serif" font-size="14.00">110</text>
</g>
<!-- state_01 -->
<g id="node2" class="node">
<title>state_01</title>
<ellipse fill="none" stroke="black" cx="795" cy="-888" rx="75.29" ry="18"/>
<text text-anchor="middle" x="795" y="-884.3" font-family="Times,serif" font-size="14.00">01: ROT_CCW</text>
</g>
<!-- state_04 -->
<g id="node5" class="node">
<title>state_04</title>
<ellipse fill="none" stroke="black" cx="885" cy="-801" rx="75.29" ry="18"/>
<text text-anchor="middle" x="885" y="-797.3" font-family="Times,serif" font-size="14.00">04: ADVANCE</text>
</g>
<!-- state_01&#45;&gt;state_04 -->
<g id="edge12" class="edge">
<title>state_01&#45;&gt;state_04</title>
<path fill="none" stroke="black" d="M838.9,-873.36C849.95,-868.16 860.95,-861.19 869,-852 874.57,-845.64 878.21,-837.32 880.58,-829.29"/>
<polygon fill="black" stroke="black" points="884.01,-830 882.95,-819.46 877.2,-828.36 884.01,-830"/>
<text text-anchor="middle" x="892" y="-840.8" font-family="Times,serif" font-size="14.00">011</text>
</g>
<!-- state_01&#45;&gt;state_04 -->
<g id="edge13" class="edge">
<title>state_01&#45;&gt;state_04</title>
<path fill="none" stroke="black" d="M787.98,-869.82C784.95,-859.44 783.41,-846.45 790,-837 796.39,-827.84 805.46,-821.07 815.49,-816.07"/>
<polygon fill="black" stroke="black" points="817.15,-819.16 824.92,-811.95 814.35,-812.74 817.15,-819.16"/>
<text text-anchor="middle" x="804" y="-840.8" font-family="Times,serif" font-size="14.00">100</text>
</g>
<!-- state_05 -->
<g id="node6" class="node">
<title>state_05</title>
<ellipse fill="none" stroke="black" cx="950" cy="-105" rx="75.29" ry="18"/>
<text text-anchor="middle" x="950" y="-101.3" font-family="Times,serif" font-size="14.00">05: ROT_CCW</text>
</g>
<!-- state_01&#45;&gt;state_05 -->
<g id="edge11" class="edge">
<title>state_01&#45;&gt;state_05</title>
<path fill="none" stroke="black" d="M769.82,-870.9C706.61,-828.77 541.98,-708.07 482,-558 476.06,-543.14 480.39,-537.92 482,-522 482.54,-516.63 555.97,-144.6 560,-141 582.25,-121.12 757.45,-112.04 865.32,-108.31"/>
<polygon fill="black" stroke="black" points="865.66,-111.8 875.54,-107.96 865.43,-104.8 865.66,-111.8"/>
<text text-anchor="middle" x="503" y="-492.8" font-family="Times,serif" font-size="14.00">010</text>
</g>
<!-- state_01&#45;&gt;state_06 -->
<g id="edge10" class="edge">
<title>state_01&#45;&gt;state_06</title>
<path fill="none" stroke="black" d="M802.88,-905.98C817.44,-935.39 851.48,-995.55 899,-1026 1045.59,-1119.95 1253.75,-1142.37 1369.31,-1147.21"/>
<polygon fill="black" stroke="black" points="1369.38,-1150.72 1379.51,-1147.61 1369.65,-1143.72 1369.38,-1150.72"/>
<text text-anchor="middle" x="913" y="-1014.8" font-family="Times,serif" font-size="14.00">001</text>
</g>
<!-- state_01&#45;&gt;state_09 -->
<g id="edge16" class="edge">
<title>state_01&#45;&gt;state_09</title>
<path fill="none" stroke="black" d="M870.14,-886.2C960.83,-882.86 1116.39,-869.41 1239,-819 1278.68,-802.69 1288.67,-795.33 1319,-765 1408.76,-675.24 1424.53,-630.51 1435,-504 1438.14,-466.12 1436.58,-422.15 1434.96,-394.46"/>
<polygon fill="black" stroke="black" points="1438.45,-394.1 1434.33,-384.34 1431.46,-394.54 1438.45,-394.1"/>
<text text-anchor="middle" x="1433" y="-623.3" font-family="Times,serif" font-size="14.00">111</text>
</g>
<!-- state_11 -->
<g id="node12" class="node">
<title>state_11</title>
<ellipse fill="none" stroke="black" cx="814" cy="-714" rx="75.29" ry="18"/>
<text text-anchor="middle" x="814" y="-710.3" font-family="Times,serif" font-size="14.00">11: ADVANCE</text>
</g>
<!-- state_01&#45;&gt;state_11 -->
<g id="edge9" class="edge">
<title>state_01&#45;&gt;state_11</title>
<path fill="none" stroke="black" d="M788.34,-870.02C786.21,-864.33 783.9,-857.92 782,-852 777.35,-837.53 775.02,-834.07 773,-819 770.88,-803.14 771.56,-798.94 773,-783 774.34,-768.15 772.08,-763.2 779,-750 781.02,-746.15 783.61,-742.45 786.46,-738.99"/>
<polygon fill="black" stroke="black" points="789.25,-741.14 793.46,-731.42 784.11,-736.39 789.25,-741.14"/>
<text text-anchor="middle" x="787" y="-797.3" font-family="Times,serif" font-size="14.00">000</text>
</g>
<!-- state_12 -->
<g id="node13" class="node">
<title>state_12</title>
<ellipse fill="none" stroke="black" cx="1257" cy="-627" rx="75.29" ry="18"/>
<text text-anchor="middle" x="1257" y="-623.3" font-family="Times,serif" font-size="14.00">12: ROT_CCW</text>
</g>
<!-- state_01&#45;&gt;state_12 -->
<g id="edge15" class="edge">
<title>state_01&#45;&gt;state_12</title>
<path fill="none" stroke="black" d="M859.39,-878.59C933.06,-865.89 1053.4,-835.32 1130,-765 1168.58,-729.58 1151.07,-699.11 1189,-663 1195.22,-657.08 1202.64,-651.91 1210.25,-647.5"/>
<polygon fill="black" stroke="black" points="1212.08,-650.49 1219.22,-642.67 1208.76,-644.33 1212.08,-650.49"/>
<text text-anchor="middle" x="1158" y="-753.8" font-family="Times,serif" font-size="14.00">110</text>
</g>
<!-- state_13 -->
<g id="node14" class="node">
<title>state_13</title>
<ellipse fill="none" stroke="black" cx="546" cy="-975" rx="68.79" ry="18"/>
<text text-anchor="middle" x="546" y="-971.3" font-family="Times,serif" font-size="14.00">13: ROT_CW</text>
</g>
<!-- state_01&#45;&gt;state_13 -->
<g id="edge14" class="edge">
<title>state_01&#45;&gt;state_13</title>
<path fill="none" stroke="black" d="M753.43,-903.19C709.96,-918.03 641.75,-941.31 595.52,-957.1"/>
<polygon fill="black" stroke="black" points="594.34,-953.8 586.01,-960.34 596.6,-960.42 594.34,-953.8"/>
<text text-anchor="middle" x="700" y="-927.8" font-family="Times,serif" font-size="14.00">101</text>
</g>
<!-- state_02&#45;&gt;state_02 -->
<g id="edge18" class="edge">
<title>state_02&#45;&gt;state_02</title>
<path fill="none" stroke="black" d="M1824.99,-1239.61C1836.53,-1239.07 1844.39,-1237.87 1844.39,-1236 1844.39,-1234.75 1840.84,-1233.79 1835.01,-1233.14"/>
<polygon fill="black" stroke="black" points="1835.22,-1229.64 1824.99,-1232.39 1834.7,-1236.62 1835.22,-1229.64"/>
<text text-anchor="middle" x="1858.39" y="-1232.3" font-family="Times,serif" font-size="14.00">001</text>
</g>
<!-- state_02&#45;&gt;state_02 -->
<g id="edge19" class="edge">
<title>state_02&#45;&gt;state_02</title>
<path fill="none" stroke="black" d="M1819.21,-1243.82C1847.73,-1244.29 1872.39,-1241.68 1872.39,-1236 1872.39,-1231.01 1853.34,-1228.39 1829.36,-1228.14"/>
<polygon fill="black" stroke="black" points="1829.2,-1224.64 1819.21,-1228.18 1829.22,-1231.64 1829.2,-1224.64"/>
<text text-anchor="middle" x="1886.39" y="-1232.3" font-family="Times,serif" font-size="14.00">010</text>
</g>
<!-- state_02&#45;&gt;state_06 -->
<g id="edge20" class="edge">
<title>state_02&#45;&gt;state_06</title>
<path fill="none" stroke="black" d="M1678.84,-1230.77C1636.15,-1226.44 1581.67,-1217.69 1536,-1200 1524.62,-1195.59 1523.34,-1191.49 1513,-1185 1505.7,-1180.42 1497.82,-1175.59 1490.3,-1171.03"/>
<polygon fill="black" stroke="black" points="1492.05,-1168 1481.68,-1165.84 1488.44,-1174 1492.05,-1168"/>
<text text-anchor="middle" x="1550" y="-1188.8" font-family="Times,serif" font-size="14.00">011</text>
</g>
<!-- state_02&#45;&gt;state_06 -->
<g id="edge23" class="edge">
<title>state_02&#45;&gt;state_06</title>
<path fill="none" stroke="black" d="M1685.88,-1226.75C1655.09,-1221.44 1618.32,-1213.02 1587,-1200 1575.73,-1195.31 1575.02,-1190.25 1564,-1185 1548.17,-1177.47 1530.32,-1170.97 1513.7,-1165.69"/>
<polygon fill="black" stroke="black" points="1514.68,-1162.33 1504.09,-1162.72 1512.61,-1169.02 1514.68,-1162.33"/>
<text text-anchor="middle" x="1601" y="-1188.8" font-family="Times,serif" font-size="14.00">110</text>
</g>
<!-- state_02&#45;&gt;state_09 -->
<g id="edge17" class="edge">
<title>state_02&#45;&gt;state_09</title>
<path fill="none" stroke="black" d="M1819.47,-1228.25C1867.44,-1219.3 1923,-1198.46 1923,-1150 1923,-1150 1923,-1150 1923,-930.5 1923,-864.79 1925.02,-848.22 1933,-783 1947.26,-666.52 1994.89,-637.29 1973,-522 1961.65,-462.2 1958.93,-433.75 1907,-402 1874.7,-382.25 1645.09,-372.83 1517.68,-369.08"/>
<polygon fill="black" stroke="black" points="1517.66,-365.58 1507.56,-368.79 1517.46,-372.57 1517.66,-365.58"/>
<text text-anchor="middle" x="1947" y="-797.3" font-family="Times,serif" font-size="14.00">000</text>
</g>
<!-- state_02&#45;&gt;state_09 -->
<g id="edge24" class="edge">
<title>state_02&#45;&gt;state_09</title>
<path fill="none" stroke="black" d="M1814.22,-1226.09C1887.7,-1213.91 1999,-1189.03 1999,-1150 1999,-1150 1999,-1150 1999,-843.5 1999,-724.21 2045.38,-692.77 2021,-576 2003.2,-490.77 2010.99,-436.39 1931,-402 1859.17,-371.12 1641.21,-366.38 1518.79,-366.28"/>
<polygon fill="black" stroke="black" points="1518.7,-362.78 1508.7,-366.28 1518.7,-369.78 1518.7,-362.78"/>
<text text-anchor="middle" x="2017" y="-797.3" font-family="Times,serif" font-size="14.00">111</text>
</g>
<!-- state_02&#45;&gt;state_12 -->
<g id="edge22" class="edge">
<title>state_02&#45;&gt;state_12</title>
<path fill="none" stroke="black" d="M1748.79,-1217.69C1743.05,-1172.14 1727.63,-1045.17 1720,-939 1716.75,-893.75 1722.73,-881.87 1716,-837 1710.07,-797.45 1714.26,-783.88 1693,-750 1607.37,-613.51 1504.43,-674.36 1346,-645 1338.88,-643.68 1331.43,-642.28 1324.02,-640.88"/>
<polygon fill="black" stroke="black" points="1324.43,-637.4 1313.96,-638.98 1323.13,-644.28 1324.43,-637.4"/>
<text text-anchor="middle" x="1734" y="-927.8" font-family="Times,serif" font-size="14.00">101</text>
</g>
<!-- state_14 -->
<g id="node15" class="node">
<title>state_14</title>
<ellipse fill="none" stroke="black" cx="1889" cy="-540" rx="75.29" ry="18"/>
<text text-anchor="middle" x="1889" y="-536.3" font-family="Times,serif" font-size="14.00">14: ADVANCE</text>
</g>
<!-- state_02&#45;&gt;state_14 -->
<g id="edge21" class="edge">
<title>state_02&#45;&gt;state_14</title>
<path fill="none" stroke="black" d="M1772.68,-1218.67C1790.56,-1203.17 1813,-1178.13 1813,-1150 1813,-1150 1813,-1150 1813,-974 1813,-794.98 1824.21,-747.67 1875,-576 1875.82,-573.23 1876.77,-570.38 1877.78,-567.56"/>
<polygon fill="black" stroke="black" points="1881.05,-568.81 1881.37,-558.22 1874.52,-566.3 1881.05,-568.81"/>
<text text-anchor="middle" x="1829" y="-884.3" font-family="Times,serif" font-size="14.00">100</text>
</g>
<!-- state_03&#45;&gt;state_00 -->
<g id="edge31" class="edge">
<title>state_03&#45;&gt;state_00</title>
<path fill="none" stroke="black" d="M1474.43,-279.27C1654.58,-278.14 2105.81,-279.11 2252,-315 2285.4,-323.2 2297.05,-324.32 2322,-348 2468.95,-487.46 2381,-597.41 2381,-800 2381,-1237 2381,-1237 2381,-1237 2381,-1289.06 2227.45,-1309.58 2127.96,-1317.41"/>
<polygon fill="black" stroke="black" points="2127.61,-1313.93 2117.91,-1318.17 2128.14,-1320.91 2127.61,-1313.93"/>
<text text-anchor="middle" x="2395" y="-797.3" font-family="Times,serif" font-size="14.00">110</text>
</g>
<!-- state_03&#45;&gt;state_04 -->
<g id="edge25" class="edge">
<title>state_03&#45;&gt;state_04</title>
<path fill="none" stroke="black" d="M1352.89,-293.32C1295.78,-311.39 1197.42,-347.76 1127,-402 1072.67,-443.85 1052.86,-457.35 1030,-522 993.94,-623.97 1115.42,-684.67 1043,-765 1031.79,-777.44 996.74,-785.89 962.5,-791.36"/>
<polygon fill="black" stroke="black" points="961.77,-787.93 952.41,-792.89 962.82,-794.85 961.77,-787.93"/>
<text text-anchor="middle" x="1044" y="-536.3" font-family="Times,serif" font-size="14.00">000</text>
</g>
<!-- state_03&#45;&gt;state_04 -->
<g id="edge29" class="edge">
<title>state_03&#45;&gt;state_04</title>
<path fill="none" stroke="black" d="M1347.11,-292.07C1337.79,-293.94 1328.14,-295.68 1319,-297 1215.76,-311.87 1186.05,-289.13 1085,-315 1050.51,-323.83 1037.94,-323.61 1012,-348 966.95,-390.35 978.99,-418.09 947,-471 932.78,-494.53 920.14,-495.74 912,-522 881.87,-619.16 926.72,-648.41 932,-750 932.35,-756.66 934.99,-759.04 932,-765 929.66,-769.65 926.38,-773.85 922.63,-777.57"/>
<polygon fill="black" stroke="black" points="920.25,-775 914.95,-784.17 924.81,-780.31 920.25,-775"/>
<text text-anchor="middle" x="926" y="-536.3" font-family="Times,serif" font-size="14.00">100</text>
</g>
<!-- state_03&#45;&gt;state_05 -->
<g id="edge32" class="edge">
<title>state_03&#45;&gt;state_05</title>
<path fill="none" stroke="black" d="M1397.3,-260.79C1395.4,-250.14 1391.42,-236.85 1383,-228 1307.41,-148.49 1257.85,-169.83 1152,-141 1110.7,-129.75 1063.63,-121.35 1025.32,-115.6"/>
<polygon fill="black" stroke="black" points="1025.68,-112.11 1015.27,-114.12 1024.66,-119.04 1025.68,-112.11"/>
<text text-anchor="middle" x="1377" y="-188.3" font-family="Times,serif" font-size="14.00">111</text>
</g>
<!-- state_03&#45;&gt;state_07 -->
<g id="edge26" class="edge">
<title>state_03&#45;&gt;state_07</title>
<path fill="none" stroke="black" d="M1378.01,-261.58C1360.33,-247.88 1337.12,-230.24 1332,-228 1297.87,-213.1 1257.6,-204.54 1222.94,-199.62"/>
<polygon fill="black" stroke="black" points="1223.23,-196.13 1212.85,-198.27 1222.3,-203.07 1223.23,-196.13"/>
<text text-anchor="middle" x="1365" y="-231.8" font-family="Times,serif" font-size="14.00">001</text>
</g>
<!-- state_03&#45;&gt;state_09 -->
<g id="edge28" class="edge">
<title>state_03&#45;&gt;state_09</title>
<path fill="none" stroke="black" d="M1386.4,-297.21C1380.78,-307.12 1376.53,-319.62 1382,-330 1384.63,-334.99 1388.32,-339.4 1392.53,-343.27"/>
<polygon fill="black" stroke="black" points="1390.55,-346.16 1400.56,-349.64 1394.91,-340.68 1390.55,-346.16"/>
<text text-anchor="middle" x="1396" y="-318.8" font-family="Times,serif" font-size="14.00">011</text>
</g>
<!-- state_03&#45;&gt;state_12 -->
<g id="edge27" class="edge">
<title>state_03&#45;&gt;state_12</title>
<path fill="none" stroke="black" d="M1384.11,-296.84C1373.13,-310 1358.49,-329.16 1349,-348 1298.14,-448.94 1315.48,-485.86 1274,-591 1272.87,-593.86 1271.61,-596.81 1270.29,-599.73"/>
<polygon fill="black" stroke="black" points="1267.12,-598.25 1266.01,-608.79 1273.45,-601.24 1267.12,-598.25"/>
<text text-anchor="middle" x="1329" y="-449.3" font-family="Times,serif" font-size="14.00">010</text>
</g>
<!-- state_03&#45;&gt;state_14 -->
<g id="edge30" class="edge">
<title>state_03&#45;&gt;state_14</title>
<path fill="none" stroke="black" d="M1472.68,-283.25C1595.02,-293.08 1837.28,-332.42 1945,-489 1952.62,-500.08 1945,-510.35 1933.19,-518.67"/>
<polygon fill="black" stroke="black" points="1931.11,-515.84 1924.47,-524.1 1934.81,-521.78 1931.11,-515.84"/>
<text text-anchor="middle" x="1889" y="-405.8" font-family="Times,serif" font-size="14.00">101</text>
</g>
<!-- state_04&#45;&gt;state_01 -->
<g id="edge36" class="edge">
<title>state_04&#45;&gt;state_01</title>
<path fill="none" stroke="black" d="M860.18,-818.36C852.44,-823.91 844.09,-830.38 837,-837 828.92,-844.54 820.9,-853.59 814.07,-861.91"/>
<polygon fill="black" stroke="black" points="811.2,-859.9 807.68,-869.9 816.66,-864.28 811.2,-859.9"/>
<text text-anchor="middle" x="851" y="-840.8" font-family="Times,serif" font-size="14.00">011</text>
</g>
<!-- state_04&#45;&gt;state_02 -->
<g id="edge38" class="edge">
<title>state_04&#45;&gt;state_02</title>
<path fill="none" stroke="black" d="M959.48,-803.87C1069.35,-811.02 1262,-842.35 1262,-974 1262,-1150 1262,-1150 1262,-1150 1262,-1242.14 1580.04,-1203.32 1671,-1218 1676.66,-1218.91 1682.52,-1219.96 1688.38,-1221.08"/>
<polygon fill="black" stroke="black" points="1687.72,-1224.52 1698.21,-1223.01 1689.07,-1217.65 1687.72,-1224.52"/>
<text text-anchor="middle" x="1276" y="-1014.8" font-family="Times,serif" font-size="14.00">101</text>
</g>
<!-- state_04&#45;&gt;state_03 -->
<g id="edge39" class="edge">
<title>state_04&#45;&gt;state_03</title>
<path fill="none" stroke="black" d="M917.28,-784.58C952.94,-765.4 1007.99,-728.87 1028,-678 1030.44,-671.8 1029.1,-669.58 1028,-663 1019.89,-614.34 1000.11,-606.66 992,-558 989.37,-542.22 987.98,-537.49 992,-522 1014.27,-436.31 1017.94,-400.81 1089,-348 1091.5,-346.14 1244.97,-313.02 1335,-293.7"/>
<polygon fill="black" stroke="black" points="1335.8,-297.11 1344.85,-291.59 1334.34,-290.26 1335.8,-297.11"/>
<text text-anchor="middle" x="1006" y="-536.3" font-family="Times,serif" font-size="14.00">110</text>
</g>
<!-- state_04&#45;&gt;state_04 -->
<g id="edge37" class="edge">
<title>state_04&#45;&gt;state_04</title>
<path fill="none" stroke="black" d="M953.41,-808.62C967.92,-807.85 978.39,-805.31 978.39,-801 978.39,-797.77 972.5,-795.53 963.44,-794.29"/>
<polygon fill="black" stroke="black" points="963.69,-790.8 953.41,-793.38 963.06,-797.77 963.69,-790.8"/>
<text text-anchor="middle" x="992.39" y="-797.3" font-family="Times,serif" font-size="14.00">100</text>
</g>
<!-- state_04&#45;&gt;state_07 -->
<g id="edge33" class="edge">
<title>state_04&#45;&gt;state_07</title>
<path fill="none" stroke="black" d="M836.67,-787.1C818.19,-781.38 797.18,-773.91 779,-765 755.42,-753.44 742.33,-755.18 730,-732 722.48,-717.88 729.43,-711.99 730,-696 731.78,-646.35 738,-634.18 738,-584.5 738,-584.5 738,-584.5 738,-278 738,-238.67 774.1,-241.59 811,-228 833.91,-219.56 970.8,-207.01 1061.22,-199.46"/>
<polygon fill="black" stroke="black" points="1061.78,-202.92 1071.45,-198.61 1061.2,-195.95 1061.78,-202.92"/>
<text text-anchor="middle" x="752" y="-492.8" font-family="Times,serif" font-size="14.00">000</text>
</g>
<!-- state_04&#45;&gt;state_09 -->
<g id="edge35" class="edge">
<title>state_04&#45;&gt;state_09</title>
<path fill="none" stroke="black" d="M956.22,-794.91C1004.4,-790.07 1062.51,-781.07 1081,-765 1209.16,-653.64 1070.31,-511.58 1200,-402 1222.22,-383.23 1291.65,-374.51 1348.99,-370.47"/>
<polygon fill="black" stroke="black" points="1349.43,-373.95 1359.17,-369.79 1348.96,-366.97 1349.43,-373.95"/>
<text text-anchor="middle" x="1155" y="-579.8" font-family="Times,serif" font-size="14.00">010</text>
</g>
<!-- state_04&#45;&gt;state_11 -->
<g id="edge34" class="edge">
<title>state_04&#45;&gt;state_11</title>
<path fill="none" stroke="black" d="M847.82,-785.29C838.82,-780.11 830.06,-773.42 824,-765 819.26,-758.4 816.63,-750.11 815.21,-742.19"/>
<polygon fill="black" stroke="black" points="818.67,-741.64 813.96,-732.15 811.72,-742.51 818.67,-741.64"/>
<text text-anchor="middle" x="838" y="-753.8" font-family="Times,serif" font-size="14.00">001</text>
</g>
<!-- state_04&#45;&gt;state_11 -->
<g id="edge40" class="edge">
<title>state_04&#45;&gt;state_11</title>
<path fill="none" stroke="black" d="M875.25,-783.07C869.13,-773.03 860.76,-760.3 852,-750 848.67,-746.09 844.93,-742.17 841.13,-738.45"/>
<polygon fill="black" stroke="black" points="843.51,-735.89 833.83,-731.59 838.72,-740.99 843.51,-735.89"/>
<text text-anchor="middle" x="878" y="-753.8" font-family="Times,serif" font-size="14.00">111</text>
</g>
<!-- state_05&#45;&gt;state_03 -->
<g id="edge48" class="edge">
<title>state_05&#45;&gt;state_03</title>
<path fill="none" stroke="black" d="M1025.48,-106.73C1139.06,-109.55 1345.87,-121.9 1395,-174 1413.92,-194.06 1411.7,-227.17 1406.83,-250.64"/>
<polygon fill="black" stroke="black" points="1403.35,-250.12 1404.46,-260.66 1410.16,-251.73 1403.35,-250.12"/>
<text text-anchor="middle" x="1423" y="-188.3" font-family="Times,serif" font-size="14.00">111</text>
</g>
<!-- state_05&#45;&gt;state_06 -->
<g id="edge45" class="edge">
<title>state_05&#45;&gt;state_06</title>
<path fill="none" stroke="black" d="M875.79,-108.43C772.31,-112.46 590.26,-122.01 527,-141 449.85,-164.16 420.57,-166.96 368,-228 263.83,-348.94 192.79,-797.16 266,-939 313.19,-1030.42 386.89,-983.4 486,-1011 558.64,-1031.23 570.51,-1053.22 641,-1080 686.33,-1097.22 697.28,-1104.4 745,-1113 862.51,-1134.17 1208.02,-1143.33 1369.72,-1146.55"/>
<polygon fill="black" stroke="black" points="1370.04,-1150.05 1380.1,-1146.75 1370.17,-1143.05 1370.04,-1150.05"/>
<text text-anchor="middle" x="260" y="-623.3" font-family="Times,serif" font-size="14.00">100</text>
</g>
<!-- state_05&#45;&gt;state_07 -->
<g id="edge41" class="edge">
<title>state_05&#45;&gt;state_07</title>
<path fill="none" stroke="black" d="M966.22,-122.58C977.77,-133.52 994.19,-147.38 1011,-156 1030.08,-165.79 1052.17,-173.04 1072.71,-178.32"/>
<polygon fill="black" stroke="black" points="1072.1,-181.78 1082.65,-180.76 1073.77,-174.98 1072.1,-181.78"/>
<text text-anchor="middle" x="1025" y="-144.8" font-family="Times,serif" font-size="14.00">000</text>
</g>
<!-- state_05&#45;&gt;state_08 -->
<g id="edge43" class="edge">
<title>state_05&#45;&gt;state_08</title>
<path fill="none" stroke="black" d="M897.29,-91.95C848.79,-81.12 774.79,-65.24 710,-54 649.33,-43.48 580.02,-34.04 529.46,-27.62"/>
<polygon fill="black" stroke="black" points="529.64,-24.12 519.29,-26.34 528.77,-31.06 529.64,-24.12"/>
<text text-anchor="middle" x="804" y="-57.8" font-family="Times,serif" font-size="14.00">010</text>
</g>
<!-- state_05&#45;&gt;state_12 -->
<g id="edge44" class="edge">
<title>state_05&#45;&gt;state_12</title>
<path fill="none" stroke="black" d="M959.88,-122.95C985.23,-166.39 1054.67,-285.25 1113,-384 1159.66,-462.99 1215.29,-556.21 1241.67,-600.35"/>
<polygon fill="black" stroke="black" points="1238.7,-602.22 1246.84,-609.01 1244.71,-598.63 1238.7,-602.22"/>
<text text-anchor="middle" x="1127" y="-362.3" font-family="Times,serif" font-size="14.00">011</text>
</g>
<!-- state_05&#45;&gt;state_13 -->
<g id="edge46" class="edge">
<title>state_05&#45;&gt;state_13</title>
<path fill="none" stroke="black" d="M876.47,-109.16C827.33,-113.05 761.89,-121.72 707,-141 679.74,-150.57 674.08,-156.62 651,-174 623.12,-194.99 612.01,-198.11 594,-228 528.28,-337.08 556.81,-383.03 517,-504 492.4,-578.76 454,-590.8 454,-669.5 454,-889 454,-889 454,-889 454,-918.15 479.22,-940.08 503.25,-954.35"/>
<polygon fill="black" stroke="black" points="501.57,-957.42 512,-959.27 505,-951.32 501.57,-957.42"/>
<text text-anchor="middle" x="525" y="-536.3" font-family="Times,serif" font-size="14.00">101</text>
</g>
<!-- state_05&#45;&gt;state_13 -->
<g id="edge47" class="edge">
<title>state_05&#45;&gt;state_13</title>
<path fill="none" stroke="black" d="M906.49,-119.74C873.07,-131.38 826.6,-150.01 790,-174 717.95,-221.22 702.76,-242.01 657,-315 603.9,-399.7 591.44,-424.58 569,-522 532.75,-679.35 539.88,-875.35 544.1,-946.55"/>
<polygon fill="black" stroke="black" points="540.63,-947.12 544.75,-956.88 547.62,-946.68 540.63,-947.12"/>
<text text-anchor="middle" x="583" y="-536.3" font-family="Times,serif" font-size="14.00">110</text>
</g>
<!-- state_05&#45;&gt;state_14 -->
<g id="edge42" class="edge">
<title>state_05&#45;&gt;state_14</title>
<path fill="none" stroke="black" d="M1000.97,-118.37C1010.56,-120.26 1020.55,-121.93 1030,-123 1061.39,-126.55 2144.71,-118.62 2167,-141 2216.58,-190.79 2172.86,-412.63 2170,-417 2124.84,-485.84 2031.55,-516.04 1964.84,-529.15"/>
<polygon fill="black" stroke="black" points="1963.97,-525.75 1954.79,-531.04 1965.27,-532.63 1963.97,-525.75"/>
<text text-anchor="middle" x="2200" y="-318.8" font-family="Times,serif" font-size="14.00">001</text>
</g>
<!-- state_06&#45;&gt;state_00 -->
<g id="edge49" class="edge">
<title>state_06&#45;&gt;state_00</title>
<path fill="none" stroke="black" d="M1453.85,-1167.27C1453.16,-1188.83 1454.49,-1226.22 1469,-1254 1479.05,-1273.24 1485.04,-1278.48 1505,-1287 1545.67,-1304.36 1818.64,-1315.12 1960.19,-1319.59"/>
<polygon fill="black" stroke="black" points="1960.46,-1323.1 1970.56,-1319.92 1960.67,-1316.11 1960.46,-1323.1"/>
<text text-anchor="middle" x="1483" y="-1232.3" font-family="Times,serif" font-size="14.00">000</text>
</g>
<!-- state_06&#45;&gt;state_00 -->
<g id="edge53" class="edge">
<title>state_06&#45;&gt;state_00</title>
<path fill="none" stroke="black" d="M1472.7,-1166.71C1484.38,-1177.16 1500.36,-1190.41 1516,-1200 1566.89,-1231.21 1581.79,-1236.94 1639,-1254 1749.95,-1287.09 1883.05,-1305.53 1965.85,-1314.61"/>
<polygon fill="black" stroke="black" points="1965.62,-1318.11 1975.94,-1315.7 1966.37,-1311.15 1965.62,-1318.11"/>
<text text-anchor="middle" x="1653" y="-1232.3" font-family="Times,serif" font-size="14.00">100</text>
</g>
<!-- state_06&#45;&gt;state_00 -->
<g id="edge55" class="edge">
<title>state_06&#45;&gt;state_00</title>
<path fill="none" stroke="black" d="M1423.3,-1165.38C1403.62,-1176.86 1380.04,-1194.58 1369,-1218 1353.49,-1250.9 1378.83,-1274.55 1413,-1287 1463.01,-1305.22 1799.32,-1315.91 1959.93,-1320.03"/>
<polygon fill="black" stroke="black" points="1960.16,-1323.54 1970.25,-1320.29 1960.34,-1316.54 1960.16,-1323.54"/>
<text text-anchor="middle" x="1383" y="-1232.3" font-family="Times,serif" font-size="14.00">110</text>
</g>
<!-- state_06&#45;&gt;state_05 -->
<g id="edge56" class="edge">
<title>state_06&#45;&gt;state_05</title>
<path fill="none" stroke="black" d="M1518.08,-1139.11C1538.18,-1136.38 1560.51,-1133.45 1581,-1131 1653.32,-1122.35 2233,-1135.84 2233,-1063 2233,-1063 2233,-1063 2233,-800 2233,-696.08 2186.4,-421.57 2113,-348 1911.97,-146.52 1786.84,-192.92 1507,-141 1298.41,-102.3 1240.53,-149.14 1030,-123 1023.9,-122.24 1017.57,-121.25 1011.27,-120.14"/>
<polygon fill="black" stroke="black" points="1011.9,-116.69 1001.42,-118.28 1010.6,-123.57 1011.9,-116.69"/>
<text text-anchor="middle" x="2230" y="-623.3" font-family="Times,serif" font-size="14.00">111</text>
</g>
<!-- state_06&#45;&gt;state_06 -->
<g id="edge52" class="edge">
<title>state_06&#45;&gt;state_06</title>
<path fill="none" stroke="black" d="M1523.41,-1156.62C1537.92,-1155.85 1548.39,-1153.31 1548.39,-1149 1548.39,-1145.77 1542.5,-1143.53 1533.44,-1142.29"/>
<polygon fill="black" stroke="black" points="1533.69,-1138.8 1523.41,-1141.38 1533.06,-1145.77 1533.69,-1138.8"/>
<text text-anchor="middle" x="1562.39" y="-1145.3" font-family="Times,serif" font-size="14.00">011</text>
</g>
<!-- state_10 -->
<g id="node11" class="node">
<title>state_10</title>
<ellipse fill="none" stroke="black" cx="1419" cy="-1062" rx="75.29" ry="18"/>
<text text-anchor="middle" x="1419" y="-1058.3" font-family="Times,serif" font-size="14.00">10: ADVANCE</text>
</g>
<!-- state_06&#45;&gt;state_10 -->
<g id="edge50" class="edge">
<title>state_06&#45;&gt;state_10</title>
<path fill="none" stroke="black" d="M1444.29,-1130.93C1441.05,-1125.34 1437.65,-1119.02 1435,-1113 1431.73,-1105.58 1428.8,-1097.27 1426.37,-1089.59"/>
<polygon fill="black" stroke="black" points="1429.72,-1088.55 1423.48,-1079.99 1423.01,-1090.58 1429.72,-1088.55"/>
<text text-anchor="middle" x="1449" y="-1101.8" font-family="Times,serif" font-size="14.00">001</text>
</g>
<!-- state_06&#45;&gt;state_10 -->
<g id="edge51" class="edge">
<title>state_06&#45;&gt;state_10</title>
<path fill="none" stroke="black" d="M1462.51,-1131.07C1465.82,-1121.03 1467.96,-1108.29 1463,-1098 1460.83,-1093.51 1457.78,-1089.42 1454.28,-1085.75"/>
<polygon fill="black" stroke="black" points="1456.38,-1082.92 1446.61,-1078.8 1451.68,-1088.11 1456.38,-1082.92"/>
<text text-anchor="middle" x="1479" y="-1101.8" font-family="Times,serif" font-size="14.00">010</text>
</g>
<!-- state_06&#45;&gt;state_10 -->
<g id="edge54" class="edge">
<title>state_06&#45;&gt;state_10</title>
<path fill="none" stroke="black" d="M1417.91,-1133.3C1409.58,-1128.17 1401.8,-1121.5 1397,-1113 1392.66,-1105.32 1394.38,-1096.62 1398.33,-1088.66"/>
<polygon fill="black" stroke="black" points="1401.34,-1090.44 1403.52,-1080.07 1395.35,-1086.81 1401.34,-1090.44"/>
<text text-anchor="middle" x="1411" y="-1101.8" font-family="Times,serif" font-size="14.00">101</text>
</g>
<!-- state_07&#45;&gt;state_00 -->
<g id="edge57" class="edge">
<title>state_07&#45;&gt;state_00</title>
<path fill="none" stroke="black" d="M1207.32,-201.12C1236.81,-204.45 1272.11,-208 1304,-210 1691.32,-234.27 1791.1,-186.87 2177,-228 2253.53,-236.16 2281.37,-220.8 2347,-261 2556.96,-389.6 2475,-553.78 2475,-800 2475,-1237 2475,-1237 2475,-1237 2475,-1306.48 2256.19,-1320.09 2130.74,-1322.18"/>
<polygon fill="black" stroke="black" points="2130.34,-1318.68 2120.39,-1322.33 2130.44,-1325.68 2130.34,-1318.68"/>
<text text-anchor="middle" x="2490" y="-753.8" font-family="Times,serif" font-size="14.00">000</text>
</g>
<!-- state_07&#45;&gt;state_03 -->
<g id="edge62" class="edge">
<title>state_07&#45;&gt;state_03</title>
<path fill="none" stroke="black" d="M1182.62,-207.21C1197.78,-213.02 1214.96,-220.21 1230,-228 1240.83,-233.62 1241.79,-238.17 1253,-243 1276.67,-253.19 1303.84,-260.73 1328.27,-266.15"/>
<polygon fill="black" stroke="black" points="1327.68,-269.6 1338.19,-268.27 1329.14,-262.76 1327.68,-269.6"/>
<text text-anchor="middle" x="1267" y="-231.8" font-family="Times,serif" font-size="14.00">101</text>
</g>
<!-- state_07&#45;&gt;state_03 -->
<g id="edge63" class="edge">
<title>state_07&#45;&gt;state_03</title>
<path fill="none" stroke="black" d="M1203.13,-202.59C1228.12,-207.97 1256.78,-216.07 1281,-228 1290.65,-232.75 1290.58,-237.8 1300,-243 1313.16,-250.26 1328.12,-256.48 1342.35,-261.57"/>
<polygon fill="black" stroke="black" points="1341.46,-264.96 1352.05,-264.91 1343.74,-258.34 1341.46,-264.96"/>
<text text-anchor="middle" x="1314" y="-231.8" font-family="Times,serif" font-size="14.00">110</text>
</g>
<!-- state_07&#45;&gt;state_05 -->
<g id="edge58" class="edge">
<title>state_07&#45;&gt;state_05</title>
<path fill="none" stroke="black" d="M1111.64,-175.5C1091.28,-165.29 1063.76,-151.86 1039,-141 1025.91,-135.26 1011.55,-129.42 998.27,-124.2"/>
<polygon fill="black" stroke="black" points="999.41,-120.89 988.82,-120.52 996.87,-127.41 999.41,-120.89"/>
<text text-anchor="middle" x="1085" y="-144.8" font-family="Times,serif" font-size="14.00">001</text>
</g>
<!-- state_07&#45;&gt;state_05 -->
<g id="edge60" class="edge">
<title>state_07&#45;&gt;state_05</title>
<path fill="none" stroke="black" d="M1132.95,-174.12C1126.15,-163.05 1115.82,-149.16 1103,-141 1081.38,-127.24 1055,-118.87 1030.27,-113.78"/>
<polygon fill="black" stroke="black" points="1030.64,-110.29 1020.16,-111.86 1029.33,-117.17 1030.64,-110.29"/>
<text text-anchor="middle" x="1134" y="-144.8" font-family="Times,serif" font-size="14.00">011</text>
</g>
<!-- state_07&#45;&gt;state_11 -->
<g id="edge61" class="edge">
<title>state_07&#45;&gt;state_11</title>
<path fill="none" stroke="black" d="M1067.82,-195.73C962.96,-201.63 784,-220.19 784,-278 784,-410.5 784,-410.5 784,-410.5 784,-529.6 773.99,-561.77 800,-678 800.61,-680.72 801.4,-683.5 802.3,-686.26"/>
<polygon fill="black" stroke="black" points="799.12,-687.75 805.89,-695.9 805.69,-685.31 799.12,-687.75"/>
<text text-anchor="middle" x="798" y="-449.3" font-family="Times,serif" font-size="14.00">100</text>
</g>
<!-- state_07&#45;&gt;state_11 -->
<g id="edge64" class="edge">
<title>state_07&#45;&gt;state_11</title>
<path fill="none" stroke="black" d="M1076.82,-201.08C1049.81,-206.23 1018.81,-214.58 993,-228 973.45,-238.17 970.18,-244.13 956,-261 874.09,-358.45 862.93,-397.16 838,-522 826.47,-579.72 819.45,-648.42 816.19,-685.67"/>
<polygon fill="black" stroke="black" points="812.69,-685.48 815.33,-695.75 819.66,-686.08 812.69,-685.48"/>
<text text-anchor="middle" x="872" y="-449.3" font-family="Times,serif" font-size="14.00">111</text>
</g>
<!-- state_07&#45;&gt;state_13 -->
<g id="edge59" class="edge">
<title>state_07&#45;&gt;state_13</title>
<path fill="none" stroke="black" d="M1071.04,-198.28C964.21,-206.41 772.98,-221.7 759,-228 739.51,-236.79 734.8,-242.55 724,-261 705.85,-291.99 581.9,-820.15 552.33,-946.84"/>
<polygon fill="black" stroke="black" points="548.85,-946.34 549.99,-956.88 555.67,-947.93 548.85,-946.34"/>
<text text-anchor="middle" x="655" y="-579.8" font-family="Times,serif" font-size="14.00">010</text>
</g>
<!-- state_08&#45;&gt;state_01 -->
<g id="edge70" class="edge">
<title>state_08&#45;&gt;state_01</title>
<path fill="none" stroke="black" d="M391.93,-23.27C330.89,-28.15 245.35,-37.66 216,-54 190.64,-68.11 174,-74.98 174,-104 174,-410.5 174,-410.5 174,-410.5 174,-515.46 138.39,-561.51 202,-645 237.04,-690.99 606.64,-822.01 743.99,-869.52"/>
<polygon fill="black" stroke="black" points="742.87,-872.84 753.47,-872.8 745.16,-866.22 742.87,-872.84"/>
<text text-anchor="middle" x="188" y="-449.3" font-family="Times,serif" font-size="14.00">101</text>
</g>
<!-- state_08&#45;&gt;state_03 -->
<g id="edge67" class="edge">
<title>state_08&#45;&gt;state_03</title>
<path fill="none" stroke="black" d="M525.08,-22.33C618.64,-27.32 793.54,-37.91 942,-54 1210.41,-83.09 1400.84,12.25 1524,-228 1536.46,-252.3 1511.5,-264.84 1480.69,-271.28"/>
<polygon fill="black" stroke="black" points="1479.71,-267.91 1470.52,-273.17 1480.99,-274.79 1479.71,-267.91"/>
<text text-anchor="middle" x="1489" y="-144.8" font-family="Times,serif" font-size="14.00">010</text>
</g>
<!-- state_08&#45;&gt;state_04 -->
<g id="edge65" class="edge">
<title>state_08&#45;&gt;state_04</title>
<path fill="none" stroke="black" d="M430.56,-34.79C408.79,-49.59 382,-73.91 382,-104 382,-323.5 382,-323.5 382,-323.5 382,-476.65 403.39,-531.31 506,-645 584.84,-732.35 631.68,-724.07 742,-765 756.76,-770.47 790.42,-778.78 821.37,-785.93"/>
<polygon fill="black" stroke="black" points="820.77,-789.38 831.3,-788.21 822.34,-782.56 820.77,-789.38"/>
<text text-anchor="middle" x="401" y="-405.8" font-family="Times,serif" font-size="14.00">000</text>
</g>
<!-- state_08&#45;&gt;state_06 -->
<g id="edge72" class="edge">
<title>state_08&#45;&gt;state_06</title>
<path fill="none" stroke="black" d="M526.88,-18.64C853.33,-17.37 2229,-17.19 2229,-104 2229,-236.5 2229,-236.5 2229,-236.5 2229,-449.1 2271,-500.4 2271,-713 2271,-1063 2271,-1063 2271,-1063 2271,-1129.07 2196.21,-1102.34 2131,-1113 1889.63,-1152.47 1824.72,-1110.62 1581,-1131 1563.35,-1132.48 1544.38,-1134.7 1526.66,-1137.05"/>
<polygon fill="black" stroke="black" points="1525.82,-1133.63 1516.39,-1138.45 1526.77,-1140.57 1525.82,-1133.63"/>
<text text-anchor="middle" x="2279" y="-579.8" font-family="Times,serif" font-size="14.00">111</text>
</g>
<!-- state_08&#45;&gt;state_07 -->
<g id="edge71" class="edge">
<title>state_08&#45;&gt;state_07</title>
<path fill="none" stroke="black" d="M526.95,-19.46C636.62,-21.89 856.55,-33.7 1034,-87 1089.24,-103.59 1120.84,-92.47 1152,-141 1156.44,-147.91 1156.35,-156.39 1154.42,-164.38"/>
<polygon fill="black" stroke="black" points="1151.03,-163.5 1151.21,-174.09 1157.67,-165.7 1151.03,-163.5"/>
<text text-anchor="middle" x="1152" y="-101.3" font-family="Times,serif" font-size="14.00">110</text>
</g>
<!-- state_08&#45;&gt;state_09 -->
<g id="edge68" class="edge">
<title>state_08&#45;&gt;state_09</title>
<path fill="none" stroke="black" d="M488.28,-34.31C589.2,-84.7 924.36,-246.86 1219,-330 1263.35,-342.52 1314.21,-351.06 1355.22,-356.58"/>
<polygon fill="black" stroke="black" points="1354.79,-360.05 1365.16,-357.88 1355.7,-353.11 1354.79,-360.05"/>
<text text-anchor="middle" x="890" y="-188.3" font-family="Times,serif" font-size="14.00">011</text>
</g>
<!-- state_08&#45;&gt;state_11 -->
<g id="edge66" class="edge">
<title>state_08&#45;&gt;state_11</title>
<path fill="none" stroke="black" d="M473.88,-35.59C527.72,-93.64 700,-295.09 700,-495.5 700,-628 700,-628 700,-628 700,-660.64 730.4,-682.23 759.8,-695.49"/>
<polygon fill="black" stroke="black" points="758.7,-698.82 769.27,-699.5 761.43,-692.38 758.7,-698.82"/>
<text text-anchor="middle" x="698" y="-362.3" font-family="Times,serif" font-size="14.00">001</text>
</g>
<!-- state_08&#45;&gt;state_13 -->
<g id="edge69" class="edge">
<title>state_08&#45;&gt;state_13</title>
<path fill="none" stroke="black" d="M389.05,-18.84C301.98,-19.86 158.21,-25.92 114,-54 92.12,-67.89 84,-78.08 84,-104 84,-454 84,-454 84,-454 84,-693.53 105.51,-830.39 319,-939 345.06,-952.26 415.73,-961.81 471.37,-967.55"/>
<polygon fill="black" stroke="black" points="471.26,-971.06 481.56,-968.58 471.97,-964.09 471.26,-971.06"/>
<text text-anchor="middle" x="99" y="-492.8" font-family="Times,serif" font-size="14.00">100</text>
</g>
<!-- state_09&#45;&gt;state_03 -->
<g id="edge77" class="edge">
<title>state_09&#45;&gt;state_03</title>
<path fill="none" stroke="black" d="M1426.12,-347.8C1421.42,-336.05 1415.1,-320.24 1409.74,-306.84"/>
<polygon fill="black" stroke="black" points="1412.83,-305.16 1405.87,-297.18 1406.33,-307.76 1412.83,-305.16"/>
<text text-anchor="middle" x="1432" y="-318.8" font-family="Times,serif" font-size="14.00">100</text>
</g>
<!-- state_09&#45;&gt;state_03 -->
<g id="edge78" class="edge">
<title>state_09&#45;&gt;state_03</title>
<path fill="none" stroke="black" d="M1445.6,-347.79C1451.22,-337.88 1455.47,-325.38 1450,-315 1447.37,-310.01 1443.68,-305.6 1439.47,-301.73"/>
<polygon fill="black" stroke="black" points="1441.45,-298.84 1431.44,-295.36 1437.09,-304.32 1441.45,-298.84"/>
<text text-anchor="middle" x="1466" y="-318.8" font-family="Times,serif" font-size="14.00">101</text>
</g>
<!-- state_09&#45;&gt;state_05 -->
<g id="edge73" class="edge">
<title>state_09&#45;&gt;state_05</title>
<path fill="none" stroke="black" d="M1465.44,-349.64C1472.86,-344.49 1479.8,-337.98 1484,-330 1517.51,-266.36 1493.1,-223.58 1441,-174 1413.73,-148.05 1399.67,-149.48 1363,-141 1218.59,-107.63 1176.93,-142.46 1030,-123 1024.14,-122.22 1018.07,-121.25 1012.01,-120.16"/>
<polygon fill="black" stroke="black" points="1012.34,-116.67 1001.87,-118.24 1011.04,-123.54 1012.34,-116.67"/>
<text text-anchor="middle" x="1506" y="-231.8" font-family="Times,serif" font-size="14.00">000</text>
</g>
<!-- state_09&#45;&gt;state_06 -->
<g id="edge75" class="edge">
<title>state_09&#45;&gt;state_06</title>
<path fill="none" stroke="black" d="M1455.78,-383.38C1488.81,-408.72 1548.62,-460.9 1572,-522 1577.72,-536.94 1574.56,-542.21 1572,-558 1570.65,-566.32 1567.35,-567.68 1566,-576 1554.89,-644.45 1527.02,-676.81 1569,-732 1585.86,-754.16 1607.38,-732.46 1629,-750 1641.98,-760.52 1642.87,-766.81 1647,-783 1663.2,-846.55 1643,-864.92 1643,-930.5 1643,-1063 1643,-1063 1643,-1063 1643,-1091.47 1570.52,-1117.36 1515.56,-1132.89"/>
<polygon fill="black" stroke="black" points="1514.58,-1129.53 1505.88,-1135.57 1516.45,-1136.28 1514.58,-1129.53"/>
<text text-anchor="middle" x="1655" y="-753.8" font-family="Times,serif" font-size="14.00">010</text>
</g>
<!-- state_09&#45;&gt;state_07 -->
<g id="edge79" class="edge">
<title>state_09&#45;&gt;state_07</title>
<path fill="none" stroke="black" d="M1360.45,-361.04C1323.97,-356.75 1279.99,-347.94 1244,-330 1224.58,-320.31 1221.94,-313.64 1208,-297 1196.76,-283.58 1172.91,-244.8 1157.17,-218.58"/>
<polygon fill="black" stroke="black" points="1160.11,-216.67 1151.97,-209.89 1154.1,-220.27 1160.11,-216.67"/>
<text text-anchor="middle" x="1222" y="-275.3" font-family="Times,serif" font-size="14.00">110</text>
</g>
<!-- state_09&#45;&gt;state_07 -->
<g id="edge80" class="edge">
<title>state_09&#45;&gt;state_07</title>
<path fill="none" stroke="black" d="M1396.35,-350.18C1366.23,-337.48 1322.85,-317.96 1287,-297 1281.05,-293.52 1213.39,-244.68 1172.63,-215.19"/>
<polygon fill="black" stroke="black" points="1174.52,-212.24 1164.37,-209.21 1170.42,-217.91 1174.52,-212.24"/>
<text text-anchor="middle" x="1301" y="-275.3" font-family="Times,serif" font-size="14.00">111</text>
</g>
<!-- state_09&#45;&gt;state_10 -->
<g id="edge76" class="edge">
<title>state_09&#45;&gt;state_10</title>
<path fill="none" stroke="black" d="M1442.4,-383.96C1445.03,-389.54 1447.57,-395.88 1449,-402 1452.34,-416.29 1449.74,-420.33 1450,-435 1451.39,-512.32 1450.78,-531.67 1451,-609 1451.05,-625 1451.61,-629.01 1451,-645 1445.35,-792.07 1428.51,-967.75 1421.8,-1033.97"/>
<polygon fill="black" stroke="black" points="1418.31,-1033.68 1420.78,-1043.99 1425.28,-1034.4 1418.31,-1033.68"/>
<text text-anchor="middle" x="1462" y="-710.3" font-family="Times,serif" font-size="14.00">011</text>
</g>
<!-- state_09&#45;&gt;state_12 -->
<g id="edge74" class="edge">
<title>state_09&#45;&gt;state_12</title>
<path fill="none" stroke="black" d="M1428.64,-384.11C1416.37,-431.04 1380.49,-560.35 1350,-591 1341.81,-599.23 1331.5,-605.55 1320.76,-610.4"/>
<polygon fill="black" stroke="black" points="1319.17,-607.27 1311.24,-614.29 1321.82,-613.74 1319.17,-607.27"/>
<text text-anchor="middle" x="1411" y="-492.8" font-family="Times,serif" font-size="14.00">001</text>
</g>
<!-- state_10&#45;&gt;state_02 -->
<g id="edge82" class="edge">
<title>state_10&#45;&gt;state_02</title>
<path fill="none" stroke="black" d="M1463.62,-1076.62C1498.23,-1088.26 1546.6,-1106.94 1585,-1131 1623.94,-1155.4 1622.89,-1175.88 1662,-1200 1672.93,-1206.74 1685.37,-1212.6 1697.42,-1217.5"/>
<polygon fill="black" stroke="black" points="1696.38,-1220.85 1706.97,-1221.22 1698.92,-1214.33 1696.38,-1220.85"/>
<text text-anchor="middle" x="1638" y="-1145.3" font-family="Times,serif" font-size="14.00">001</text>
</g>
<!-- state_10&#45;&gt;state_02 -->
<g id="edge87" class="edge">
<title>state_10&#45;&gt;state_02</title>
<path fill="none" stroke="black" d="M1483.13,-1071.53C1532.8,-1080.41 1601.72,-1097.85 1654,-1131 1671.66,-1142.2 1703.72,-1184.72 1718,-1200 1721.32,-1203.55 1724.83,-1207.29 1728.28,-1210.96"/>
<polygon fill="black" stroke="black" points="1725.79,-1213.41 1735.19,-1218.29 1730.88,-1208.61 1725.79,-1213.41"/>
<text text-anchor="middle" x="1703" y="-1145.3" font-family="Times,serif" font-size="14.00">110</text>
</g>
<!-- state_10&#45;&gt;state_03 -->
<g id="edge85" class="edge">
<title>state_10&#45;&gt;state_03</title>
<path fill="none" stroke="black" d="M1487.05,-1054.2C1613.16,-1040.18 1875.92,-1003.79 1937,-939 1951.8,-923.3 2007.95,-579.19 2012,-558 2017.81,-527.56 2028.77,-519.24 2022,-489 1986.47,-330.26 1859.22,-348.3 1700,-315 1626.74,-299.68 1541.94,-290.58 1481.06,-285.51"/>
<polygon fill="black" stroke="black" points="1480.99,-282 1470.74,-284.68 1480.42,-288.97 1480.99,-282"/>
<text text-anchor="middle" x="2007" y="-666.8" font-family="Times,serif" font-size="14.00">100</text>
</g>
<!-- state_10&#45;&gt;state_07 -->
<g id="edge81" class="edge">
<title>state_10&#45;&gt;state_07</title>
<path fill="none" stroke="black" d="M1406.35,-1044.08C1395.29,-1027.6 1381,-1001.38 1381,-976 1381,-976 1381,-976 1381,-843.5 1381,-739.25 1361.09,-712.17 1376,-609 1383.88,-554.48 1429.41,-539.32 1407,-489 1353.38,-368.6 1256.2,-405.24 1181,-297 1164.57,-273.35 1154.03,-241.9 1148.11,-219.8"/>
<polygon fill="black" stroke="black" points="1151.49,-218.9 1145.64,-210.07 1144.71,-220.62 1151.49,-218.9"/>
<text text-anchor="middle" x="1390" y="-623.3" font-family="Times,serif" font-size="14.00">000</text>
</g>
<!-- state_10&#45;&gt;state_08 -->
<g id="edge83" class="edge">
<title>state_10&#45;&gt;state_08</title>
<path fill="none" stroke="black" d="M1343.76,-1060.29C1182.96,-1058.33 793.99,-1051.15 469,-1026 374.63,-1018.7 46,-1070.65 46,-976 46,-976 46,-976 46,-104 46,-73.8 64.96,-67.44 92,-54 140.76,-29.77 287.08,-22.29 379.27,-20"/>
<polygon fill="black" stroke="black" points="379.49,-23.49 389.4,-19.76 379.32,-16.49 379.49,-23.49"/>
<text text-anchor="middle" x="60" y="-536.3" font-family="Times,serif" font-size="14.00">010</text>
</g>
<!-- state_10&#45;&gt;state_08 -->
<g id="edge84" class="edge">
<title>state_10&#45;&gt;state_08</title>
<path fill="none" stroke="black" d="M1343.46,-1060.69C1147.9,-1059.08 629.09,-1049.46 468,-993 214.41,-904.11 306,-679.21 306,-410.5 306,-410.5 306,-410.5 306,-104 306,-62.66 349.36,-41.23 389.76,-30.24"/>
<polygon fill="black" stroke="black" points="390.83,-33.58 399.67,-27.73 389.11,-26.79 390.83,-33.58"/>
<text text-anchor="middle" x="316" y="-536.3" font-family="Times,serif" font-size="14.00">011</text>
</g>
<!-- state_10&#45;&gt;state_10 -->
<g id="edge86" class="edge">
<title>state_10&#45;&gt;state_10</title>
<path fill="none" stroke="black" d="M1487.41,-1069.62C1501.92,-1068.85 1512.39,-1066.31 1512.39,-1062 1512.39,-1058.77 1506.5,-1056.53 1497.44,-1055.29"/>
<polygon fill="black" stroke="black" points="1497.69,-1051.8 1487.41,-1054.38 1497.06,-1058.77 1497.69,-1051.8"/>
<text text-anchor="middle" x="1526.39" y="-1058.3" font-family="Times,serif" font-size="14.00">101</text>
</g>
<!-- state_10&#45;&gt;state_13 -->
<g id="edge88" class="edge">
<title>state_10&#45;&gt;state_13</title>
<path fill="none" stroke="black" d="M1350.5,-1054.33C1189.07,-1038.61 785.94,-999.36 619.58,-983.16"/>
<polygon fill="black" stroke="black" points="619.74,-979.66 609.44,-982.18 619.06,-986.63 619.74,-979.66"/>
<text text-anchor="middle" x="1049" y="-1014.8" font-family="Times,serif" font-size="14.00">111</text>
</g>
<!-- state_11&#45;&gt;state_00 -->
<g id="edge94" class="edge">
<title>state_11&#45;&gt;state_00</title>
<path fill="none" stroke="black" d="M775.5,-729.48C734.03,-747.48 670.56,-782.64 645,-837 642.16,-843.03 642.45,-845.84 645,-852 649.33,-862.45 658.67,-859.55 663,-870 669.12,-884.78 666.35,-890.35 663,-906 654.14,-947.44 654.48,-963.56 624,-993 566.36,-1048.67 457,-980.86 457,-1061 457,-1237 457,-1237 457,-1237 457,-1312.88 1628.31,-1321.12 1959,-1321.93"/>
<polygon fill="black" stroke="black" points="1959.47,-1325.43 1969.48,-1321.96 1959.48,-1318.43 1959.47,-1325.43"/>
<text text-anchor="middle" x="608" y="-1014.8" font-family="Times,serif" font-size="14.00">101</text>
</g>
<!-- state_11&#45;&gt;state_04 -->
<g id="edge89" class="edge">
<title>state_11&#45;&gt;state_04</title>
<path fill="none" stroke="black" d="M866.88,-727.04C878.34,-732.19 889.09,-739.54 896,-750 900.6,-756.96 900.35,-765.54 898.18,-773.61"/>
<polygon fill="black" stroke="black" points="894.87,-772.47 894.79,-783.06 901.46,-774.83 894.87,-772.47"/>
<text text-anchor="middle" x="914" y="-753.8" font-family="Times,serif" font-size="14.00">000</text>
</g>
<!-- state_11&#45;&gt;state_04 -->
<g id="edge93" class="edge">
<title>state_11&#45;&gt;state_04</title>
<path fill="none" stroke="black" d="M794.9,-731.74C785.87,-741.71 778.53,-754.44 786,-765 792.91,-774.77 802.78,-781.83 813.64,-786.93"/>
<polygon fill="black" stroke="black" points="812.38,-790.19 822.96,-790.76 815.04,-783.72 812.38,-790.19"/>
<text text-anchor="middle" x="800" y="-753.8" font-family="Times,serif" font-size="14.00">100</text>
</g>
<!-- state_11&#45;&gt;state_07 -->
<g id="edge90" class="edge">
<title>state_11&#45;&gt;state_07</title>
<path fill="none" stroke="black" d="M823.68,-695.87C826.6,-690.28 829.65,-683.98 832,-678 858.38,-610.97 848.35,-588.52 876,-522 910.07,-440.04 918.93,-417.61 974,-348 1015.94,-294.98 1076.45,-243.89 1112.25,-215.64"/>
<polygon fill="black" stroke="black" points="1114.64,-218.21 1120.36,-209.3 1110.33,-212.7 1114.64,-218.21"/>
<text text-anchor="middle" x="929" y="-449.3" font-family="Times,serif" font-size="14.00">001</text>
</g>
<!-- state_11&#45;&gt;state_08 -->
<g id="edge95" class="edge">
<title>state_11&#45;&gt;state_08</title>
<path fill="none" stroke="black" d="M761.51,-700.98C744.5,-695.61 726.14,-688.14 711,-678 668.34,-649.43 663.24,-633.88 635,-591 626.16,-577.57 514.85,-345.33 510,-330 477.83,-228.22 464.5,-101.05 459.97,-46.22"/>
<polygon fill="black" stroke="black" points="463.46,-45.94 459.18,-36.25 456.48,-46.5 463.46,-45.94"/>
<text text-anchor="middle" x="549" y="-362.3" font-family="Times,serif" font-size="14.00">110</text>
</g>
<!-- state_11&#45;&gt;state_09 -->
<g id="edge92" class="edge">
<title>state_11&#45;&gt;state_09</title>
<path fill="none" stroke="black" d="M842.06,-697.04C898.29,-664.77 1022.41,-591.95 1058,-558 1079.24,-537.74 1080.95,-529.19 1096,-504 1121.99,-460.49 1105.59,-431.22 1147,-402 1178.47,-379.79 1275.58,-371.64 1347.97,-368.67"/>
<polygon fill="black" stroke="black" points="1348.15,-372.16 1358.01,-368.28 1347.88,-365.17 1348.15,-372.16"/>
<text text-anchor="middle" x="1100" y="-536.3" font-family="Times,serif" font-size="14.00">011</text>
</g>
<!-- state_11&#45;&gt;state_12 -->
<g id="edge91" class="edge">
<title>state_11&#45;&gt;state_12</title>
<path fill="none" stroke="black" d="M851.93,-698.42C888.34,-684.51 939.21,-665.33 949,-663 1023.76,-645.19 1110.95,-636.36 1173.44,-632.03"/>
<polygon fill="black" stroke="black" points="1173.9,-635.51 1183.64,-631.35 1173.43,-628.52 1173.9,-635.51"/>
<text text-anchor="middle" x="963" y="-666.8" font-family="Times,serif" font-size="14.00">010</text>
</g>
<!-- state_11&#45;&gt;state_12 -->
<g id="edge96" class="edge">
<title>state_11&#45;&gt;state_12</title>
<path fill="none" stroke="black" d="M871.01,-702.06C952.83,-686.36 1103.26,-657.5 1190.19,-640.82"/>
<polygon fill="black" stroke="black" points="1191.05,-644.22 1200.21,-638.9 1189.73,-637.34 1191.05,-644.22"/>
<text text-anchor="middle" x="1077" y="-666.8" font-family="Times,serif" font-size="14.00">111</text>
</g>
<!-- state_12&#45;&gt;state_01 -->
<g id="edge97" class="edge">
<title>state_12&#45;&gt;state_01</title>
<path fill="none" stroke="black" d="M1246.13,-645.01C1242.54,-650.7 1238.56,-657.1 1235,-663 1207.95,-707.84 1212.05,-727.01 1176,-765 1098.17,-847.02 965.24,-874.06 878.77,-882.88"/>
<polygon fill="black" stroke="black" points="878.35,-879.4 868.73,-883.84 879.01,-886.37 878.35,-879.4"/>
<text text-anchor="middle" x="1203" y="-753.8" font-family="Times,serif" font-size="14.00">000</text>
</g>
<!-- state_12&#45;&gt;state_02 -->
<g id="edge98" class="edge">
<title>state_12&#45;&gt;state_02</title>
<path fill="none" stroke="black" d="M1311.43,-639.49C1322.81,-641.58 1334.77,-643.56 1346,-645 1464.85,-660.27 1499.67,-630.5 1615,-663 1645.42,-671.57 1654.92,-674.4 1678,-696 1773.01,-784.94 1770,-843.85 1770,-974 1770,-1150 1770,-1150 1770,-1150 1770,-1169.91 1764.97,-1191.83 1760.09,-1208.42"/>
<polygon fill="black" stroke="black" points="1756.74,-1207.4 1757.12,-1217.99 1763.43,-1209.48 1756.74,-1207.4"/>
<text text-anchor="middle" x="1783" y="-927.8" font-family="Times,serif" font-size="14.00">001</text>
</g>
<!-- state_12&#45;&gt;state_05 -->
<g id="edge100" class="edge">
<title>state_12&#45;&gt;state_05</title>
<path fill="none" stroke="black" d="M1200.96,-614.86C1179.85,-609.38 1156.11,-601.62 1136,-591 1115.62,-580.24 1112.47,-574.12 1096,-558 1071.43,-533.94 894,-357.89 894,-323.5 894,-323.5 894,-323.5 894,-191 894,-167.46 909.16,-145.4 923.71,-129.66"/>
<polygon fill="black" stroke="black" points="926.25,-132.06 930.73,-122.46 921.24,-127.18 926.25,-132.06"/>
<text text-anchor="middle" x="946" y="-362.3" font-family="Times,serif" font-size="14.00">011</text>
</g>
<!-- state_12&#45;&gt;state_06 -->
<g id="edge103" class="edge">
<title>state_12&#45;&gt;state_06</title>
<path fill="none" stroke="black" d="M1273.25,-644.67C1287.18,-660.78 1305,-686.56 1305,-713 1305,-1063 1305,-1063 1305,-1063 1305,-1102.73 1345.33,-1124.12 1384.17,-1135.5"/>
<polygon fill="black" stroke="black" points="1383.42,-1138.92 1393.99,-1138.18 1385.27,-1132.17 1383.42,-1138.92"/>
<text text-anchor="middle" x="1319" y="-884.3" font-family="Times,serif" font-size="14.00">110</text>
</g>
<!-- state_12&#45;&gt;state_06 -->
<g id="edge104" class="edge">
<title>state_12&#45;&gt;state_06</title>
<path fill="none" stroke="black" d="M1281.02,-644.36C1288.87,-650.01 1297.5,-656.54 1305,-663 1346.21,-698.46 1358.69,-706.27 1391,-750 1479.16,-869.3 1512.79,-900.15 1549,-1044 1552.91,-1059.52 1556.28,-1065.75 1549,-1080 1538.32,-1100.9 1517.88,-1116.87 1498.79,-1128.06"/>
<polygon fill="black" stroke="black" points="1496.9,-1125.1 1489.86,-1133.02 1500.3,-1131.22 1496.9,-1125.1"/>
<text text-anchor="middle" x="1513" y="-884.3" font-family="Times,serif" font-size="14.00">111</text>
</g>
<!-- state_12&#45;&gt;state_07 -->
<g id="edge99" class="edge">
<title>state_12&#45;&gt;state_07</title>
<path fill="none" stroke="black" d="M1253.89,-609C1250.03,-588.35 1243.1,-552.5 1236,-522 1223.48,-468.24 1231.37,-449.93 1204,-402 1181.87,-363.24 1150.79,-371.35 1134,-330 1119.46,-294.18 1126.56,-248.72 1133.72,-220.24"/>
<polygon fill="black" stroke="black" points="1137.2,-220.78 1136.42,-210.21 1130.44,-218.96 1137.2,-220.78"/>
<text text-anchor="middle" x="1226" y="-405.8" font-family="Times,serif" font-size="14.00">010</text>
</g>
<!-- state_12&#45;&gt;state_09 -->
<g id="edge101" class="edge">
<title>state_12&#45;&gt;state_09</title>
<path fill="none" stroke="black" d="M1287.89,-610.58C1296.47,-605.24 1305.27,-598.64 1312,-591 1345.11,-553.4 1336.44,-533.22 1360,-489 1378.11,-455 1401.27,-417.12 1416.59,-392.72"/>
<polygon fill="black" stroke="black" points="1419.68,-394.39 1422.05,-384.06 1413.76,-390.65 1419.68,-394.39"/>
<text text-anchor="middle" x="1374" y="-492.8" font-family="Times,serif" font-size="14.00">100</text>
</g>
<!-- state_12&#45;&gt;state_14 -->
<g id="edge102" class="edge">
<title>state_12&#45;&gt;state_14</title>
<path fill="none" stroke="black" d="M1311.93,-614.65C1323.17,-612.57 1334.94,-610.56 1346,-609 1432.18,-596.82 1454.56,-601.19 1541,-591 1637.2,-579.66 1747.86,-563.16 1818.08,-552.26"/>
<polygon fill="black" stroke="black" points="1818.8,-555.69 1828.14,-550.7 1817.73,-548.78 1818.8,-555.69"/>
<text text-anchor="middle" x="1670" y="-579.8" font-family="Times,serif" font-size="14.00">101</text>
</g>
<!-- state_13&#45;&gt;state_01 -->
<g id="edge105" class="edge">
<title>state_13&#45;&gt;state_01</title>
<path fill="none" stroke="black" d="M608.14,-967.09C641.58,-961.97 683.03,-953.31 718,-939 734.98,-932.05 752.26,-921.24 766.13,-911.45"/>
<polygon fill="black" stroke="black" points="768.26,-914.23 774.3,-905.53 764.15,-908.57 768.26,-914.23"/>
<text text-anchor="middle" x="762" y="-927.8" font-family="Times,serif" font-size="14.00">000</text>
</g>
<!-- state_13&#45;&gt;state_04 -->
<g id="edge110" class="edge">
<title>state_13&#45;&gt;state_04</title>
<path fill="none" stroke="black" d="M566.68,-957.71C601.8,-930.14 670.53,-876.6 683,-870 727.86,-846.24 782.65,-828.42 823.85,-816.99"/>
<polygon fill="black" stroke="black" points="825.02,-820.3 833.75,-814.3 823.18,-813.55 825.02,-820.3"/>
<text text-anchor="middle" x="697" y="-884.3" font-family="Times,serif" font-size="14.00">101</text>
</g>
<!-- state_13&#45;&gt;state_05 -->
<g id="edge112" class="edge">
<title>state_13&#45;&gt;state_05</title>
<path fill="none" stroke="black" d="M500.12,-961.55C487.19,-956.28 473.95,-948.97 464,-939 452.75,-927.72 454.62,-921.25 450,-906 384.57,-690.17 322.87,-616.99 391,-402 432.24,-271.85 436.72,-212.55 553,-141 578.97,-125.02 757.48,-114.45 866.1,-109.42"/>
<polygon fill="black" stroke="black" points="866.55,-112.9 876.38,-108.95 866.23,-105.91 866.55,-112.9"/>
<text text-anchor="middle" x="378" y="-536.3" font-family="Times,serif" font-size="14.00">111</text>
</g>
<!-- state_13&#45;&gt;state_06 -->
<g id="edge109" class="edge">
<title>state_13&#45;&gt;state_06</title>
<path fill="none" stroke="black" d="M566.81,-992.3C606.9,-1022.63 698.78,-1086.98 788,-1113 894.44,-1144.04 1214.05,-1148.24 1368.96,-1148.37"/>
<polygon fill="black" stroke="black" points="1369.37,-1151.87 1379.37,-1148.38 1369.37,-1144.87 1369.37,-1151.87"/>
<text text-anchor="middle" x="720" y="-1058.3" font-family="Times,serif" font-size="14.00">100</text>
</g>
<!-- state_13&#45;&gt;state_08 -->
<g id="edge106" class="edge">
<title>state_13&#45;&gt;state_08</title>
<path fill="none" stroke="black" d="M497.28,-962.22C481.49,-956.85 464.57,-949.33 451,-939 323.02,-841.58 298.35,-794.88 240,-645 214.7,-580.01 219.9,-558.67 223,-489 224.56,-454.01 230,-445.53 230,-410.5 230,-410.5 230,-410.5 230,-104 230,-68.6 260.02,-69.18 292,-54 320.81,-40.33 354.93,-31.96 384.73,-26.85"/>
<polygon fill="black" stroke="black" points="385.35,-30.3 394.66,-25.24 384.23,-23.39 385.35,-30.3"/>
<text text-anchor="middle" x="237" y="-492.8" font-family="Times,serif" font-size="14.00">001</text>
</g>
<!-- state_13&#45;&gt;state_08 -->
<g id="edge108" class="edge">
<title>state_13&#45;&gt;state_08</title>
<path fill="none" stroke="black" d="M492.32,-963.7C453.74,-954.08 402.33,-936.5 366,-906 178.87,-748.94 128,-654.81 128,-410.5 128,-410.5 128,-410.5 128,-104 128,-69.29 156.19,-67.89 188,-54 221.73,-39.27 314.36,-29.5 381.74,-24.12"/>
<polygon fill="black" stroke="black" points="382.21,-27.59 391.9,-23.32 381.66,-20.61 382.21,-27.59"/>
<text text-anchor="middle" x="146" y="-492.8" font-family="Times,serif" font-size="14.00">011</text>
</g>
<!-- state_13&#45;&gt;state_11 -->
<g id="edge107" class="edge">
<title>state_13&#45;&gt;state_11</title>
<path fill="none" stroke="black" d="M558.2,-956.99C573.8,-935.71 602.14,-898.59 630,-870 687.44,-811.07 707.75,-802.64 771,-750 775.64,-746.13 780.6,-742.06 785.43,-738.11"/>
<polygon fill="black" stroke="black" points="787.82,-740.67 793.37,-731.64 783.4,-735.25 787.82,-740.67"/>
<text text-anchor="middle" x="678" y="-840.8" font-family="Times,serif" font-size="14.00">010</text>
</g>
<!-- state_13&#45;&gt;state_12 -->
<g id="edge111" class="edge">
<title>state_13&#45;&gt;state_12</title>
<path fill="none" stroke="black" d="M609.82,-968.01C723.81,-955.12 967.17,-917.47 1146,-819 1181.98,-799.19 1197.74,-798.86 1221,-765 1243.84,-731.75 1252.19,-684.86 1255.24,-655.46"/>
<polygon fill="black" stroke="black" points="1258.76,-655.39 1256.17,-645.11 1251.79,-654.76 1258.76,-655.39"/>
<text text-anchor="middle" x="1221" y="-797.3" font-family="Times,serif" font-size="14.00">110</text>
</g>
<!-- state_14&#45;&gt;state_00 -->
<g id="edge118" class="edge">
<title>state_14&#45;&gt;state_00</title>
<path fill="none" stroke="black" d="M1920.56,-556.38C1963.96,-579.6 2039.9,-628.22 2068,-696 2091.78,-753.36 2096,-911.91 2096,-974 2096,-1237 2096,-1237 2096,-1237 2096,-1259.72 2082.44,-1281.6 2069.31,-1297.48"/>
<polygon fill="black" stroke="black" points="2066.5,-1295.37 2062.55,-1305.2 2071.77,-1299.98 2066.5,-1295.37"/>
<text text-anchor="middle" x="2109" y="-927.8" font-family="Times,serif" font-size="14.00">101</text>
</g>
<!-- state_14&#45;&gt;state_02 -->
<g id="edge119" class="edge">
<title>state_14&#45;&gt;state_02</title>
<path fill="none" stroke="black" d="M1887.35,-558.07C1882.23,-612.4 1867,-786.24 1867,-930.5 1867,-1150 1867,-1150 1867,-1150 1867,-1182.89 1836.28,-1204.44 1806.46,-1217.61"/>
<polygon fill="black" stroke="black" points="1804.74,-1214.53 1796.85,-1221.6 1807.42,-1221 1804.74,-1214.53"/>
<text text-anchor="middle" x="1881" y="-884.3" font-family="Times,serif" font-size="14.00">110</text>
</g>
<!-- state_14&#45;&gt;state_06 -->
<g id="edge117" class="edge">
<title>state_14&#45;&gt;state_06</title>
<path fill="none" stroke="black" d="M1859.72,-556.62C1851.61,-561.96 1843.31,-568.51 1837,-576 1744.71,-685.53 1749.3,-733.79 1705,-870 1670.87,-974.94 1733.3,-1036.26 1654,-1113 1649.29,-1117.56 1582.26,-1128.72 1527.28,-1137.23"/>
<polygon fill="black" stroke="black" points="1526.52,-1133.8 1517.17,-1138.78 1527.59,-1140.72 1526.52,-1133.8"/>
<text text-anchor="middle" x="1729" y="-840.8" font-family="Times,serif" font-size="14.00">100</text>
</g>
<!-- state_14&#45;&gt;state_08 -->
<g id="edge115" class="edge">
<title>state_14&#45;&gt;state_08</title>
<path fill="none" stroke="black" d="M1956.14,-531.59C1994.03,-526.24 2041.88,-517.54 2083,-504 2161.74,-478.07 2205.83,-488.38 2248,-417 2285.61,-353.34 2331.71,-142.75 2243,-54 2212.44,-23.42 878.5,-19.56 536.98,-19.07"/>
<polygon fill="black" stroke="black" points="536.93,-15.57 526.93,-19.06 536.92,-22.57 536.93,-15.57"/>
<text text-anchor="middle" x="2305" y="-275.3" font-family="Times,serif" font-size="14.00">010</text>
</g>
<!-- state_14&#45;&gt;state_08 -->
<g id="edge120" class="edge">
<title>state_14&#45;&gt;state_08</title>
<path fill="none" stroke="black" d="M1956.54,-531.85C2042.65,-521.66 2185.6,-500.84 2229,-471 2338.61,-395.63 2415,-369.53 2415,-236.5 2415,-236.5 2415,-236.5 2415,-104 2415,-32.88 2333.11,-65.93 2263,-54 2091.73,-24.85 863.2,-19.94 537.23,-19.15"/>
<polygon fill="black" stroke="black" points="536.94,-15.65 526.93,-19.12 536.92,-22.65 536.94,-15.65"/>
<text text-anchor="middle" x="2427" y="-275.3" font-family="Times,serif" font-size="14.00">111</text>
</g>
<!-- state_14&#45;&gt;state_10 -->
<g id="edge113" class="edge">
<title>state_14&#45;&gt;state_10</title>
<path fill="none" stroke="black" d="M1841.73,-554.08C1827.19,-559.45 1811.69,-566.65 1799,-576 1727.7,-628.54 1742.78,-674.99 1675,-732 1662.21,-742.75 1653.07,-737.49 1642,-750 1612.39,-783.48 1605,-798.81 1605,-843.5 1605,-976 1605,-976 1605,-976 1605,-1025.1 1550.73,-1045.95 1500.82,-1054.75"/>
<polygon fill="black" stroke="black" points="1500.22,-1051.3 1490.91,-1056.36 1501.34,-1058.21 1500.22,-1051.3"/>
<text text-anchor="middle" x="1630" y="-797.3" font-family="Times,serif" font-size="14.00">000</text>
</g>
<!-- state_14&#45;&gt;state_15 -->
<g id="edge114" class="edge">
<title>state_14&#45;&gt;state_15</title>
<path fill="none" stroke="black" d="M1885.62,-521.71C1882.59,-510.75 1877,-497.14 1867,-489 1853.17,-477.74 1815.03,-469.25 1779.01,-463.44"/>
<polygon fill="black" stroke="black" points="1779.35,-459.96 1768.93,-461.88 1778.28,-466.87 1779.35,-459.96"/>
<text text-anchor="middle" x="1892" y="-492.8" font-family="Times,serif" font-size="14.00">001</text>
</g>
<!-- state_14&#45;&gt;state_15 -->
<g id="edge116" class="edge">
<title>state_14&#45;&gt;state_15</title>
<path fill="none" stroke="black" d="M1904.31,-522.32C1912.01,-511.88 1918.14,-498.64 1910,-489 1894.1,-470.18 1837.27,-461.48 1787.17,-457.46"/>
<polygon fill="black" stroke="black" points="1787.16,-453.95 1776.92,-456.69 1786.64,-460.93 1787.16,-453.95"/>
<text text-anchor="middle" x="1927" y="-492.8" font-family="Times,serif" font-size="14.00">011</text>
</g>
<!-- state_15&#45;&gt;state_04 -->
<g id="edge128" class="edge">
<title>state_15&#45;&gt;state_04</title>
<path fill="none" stroke="black" d="M1666.53,-468.82C1657.42,-474.02 1648.43,-480.7 1642,-489 1613.22,-526.17 1636.43,-549.68 1614,-591 1608.89,-600.41 1604.95,-600.86 1598,-609 1552.05,-662.78 1559.04,-698.02 1497,-732 1451.44,-756.96 1122.3,-783.21 966.44,-794.41"/>
<polygon fill="black" stroke="black" points="966.15,-790.92 956.43,-795.13 966.65,-797.91 966.15,-790.92"/>
<text text-anchor="middle" x="1612" y="-623.3" font-family="Times,serif" font-size="14.00">111</text>
</g>
<!-- state_15&#45;&gt;state_09 -->
<g id="edge127" class="edge">
<title>state_15&#45;&gt;state_09</title>
<path fill="none" stroke="black" d="M1676.12,-435.96C1656.68,-424.98 1629.46,-410.86 1604,-402 1572.76,-391.13 1537.07,-383.17 1506.4,-377.61"/>
<polygon fill="black" stroke="black" points="1506.67,-374.1 1496.21,-375.81 1505.45,-380.99 1506.67,-374.1"/>
<text text-anchor="middle" x="1651" y="-405.8" font-family="Times,serif" font-size="14.00">110</text>
</g>
<!-- state_15&#45;&gt;state_10 -->
<g id="edge121" class="edge">
<title>state_15&#45;&gt;state_10</title>
<path fill="none" stroke="black" d="M1697.44,-471.03C1695.64,-476.73 1693.67,-483.12 1692,-489 1661.5,-596.21 1698.39,-643.99 1630,-732 1619.75,-745.19 1608.13,-737.54 1597,-750 1567.13,-783.46 1559,-798.64 1559,-843.5 1559,-976 1559,-976 1559,-976 1559,-1013.72 1521.41,-1035.17 1485.19,-1047.08"/>
<polygon fill="black" stroke="black" points="1484.07,-1043.77 1475.54,-1050.06 1486.13,-1050.46 1484.07,-1043.77"/>
<text text-anchor="middle" x="1611" y="-753.8" font-family="Times,serif" font-size="14.00">000</text>
</g>
<!-- state_15&#45;&gt;state_12 -->
<g id="edge122" class="edge">
<title>state_15&#45;&gt;state_12</title>
<path fill="none" stroke="black" d="M1664.72,-468.58C1648.94,-474.71 1630.52,-482.03 1614,-489 1512.47,-531.85 1491.8,-553.99 1388,-591 1365.98,-598.85 1341.34,-605.88 1319.42,-611.54"/>
<polygon fill="black" stroke="black" points="1318.39,-608.19 1309.55,-614.04 1320.11,-614.97 1318.39,-608.19"/>
<text text-anchor="middle" x="1554" y="-536.3" font-family="Times,serif" font-size="14.00">001</text>
</g>
<!-- state_15&#45;&gt;state_13 -->
<g id="edge123" class="edge">
<title>state_15&#45;&gt;state_13</title>
<path fill="none" stroke="black" d="M1682.21,-470.52C1676.58,-475.89 1670.95,-482.22 1667,-489 1630.87,-550.92 1653.51,-578.8 1626,-645 1598.71,-710.67 1573.69,-717.92 1545,-783 1521.92,-835.35 1551.82,-870.43 1507,-906 1438.61,-960.28 842.42,-971.25 624.95,-973.45"/>
<polygon fill="black" stroke="black" points="624.85,-969.95 614.89,-973.55 624.92,-976.95 624.85,-969.95"/>
<text text-anchor="middle" x="1612" y="-710.3" font-family="Times,serif" font-size="14.00">010</text>
</g>
<!-- state_15&#45;&gt;state_14 -->
<g id="edge124" class="edge">
<title>state_15&#45;&gt;state_14</title>
<path fill="none" stroke="black" d="M1710.64,-471.35C1716.36,-482.33 1725.22,-495.94 1737,-504 1750.42,-513.18 1784.69,-521.45 1817.3,-527.64"/>
<polygon fill="black" stroke="black" points="1816.88,-531.12 1827.34,-529.49 1818.15,-524.24 1816.88,-531.12"/>
<text text-anchor="middle" x="1751" y="-492.8" font-family="Times,serif" font-size="14.00">011</text>
</g>
<!-- state_15&#45;&gt;state_14 -->
<g id="edge125" class="edge">
<title>state_15&#45;&gt;state_14</title>
<path fill="none" stroke="black" d="M1731.93,-469.83C1742.43,-475.7 1754.33,-482.52 1765,-489 1775.43,-495.34 1777.04,-498.63 1788,-504 1802.28,-511 1818.33,-517.24 1833.35,-522.44"/>
<polygon fill="black" stroke="black" points="1832.45,-525.83 1843.04,-525.7 1834.68,-519.19 1832.45,-525.83"/>
<text text-anchor="middle" x="1802" y="-492.8" font-family="Times,serif" font-size="14.00">100</text>
</g>
<!-- state_15&#45;&gt;state_14 -->
<g id="edge126" class="edge">
<title>state_15&#45;&gt;state_14</title>
<path fill="none" stroke="black" d="M1755.5,-465.93C1775.12,-471.49 1797.19,-479.1 1816,-489 1825.52,-494.01 1826.25,-497.73 1835,-504 1841.18,-508.43 1847.89,-512.98 1854.42,-517.27"/>
<polygon fill="black" stroke="black" points="1852.83,-520.41 1863.13,-522.92 1856.65,-514.54 1852.83,-520.41"/>
<text text-anchor="middle" x="1849" y="-492.8" font-family="Times,serif" font-size="14.00">101</text>
</g>
</g>
</svg>
